<svg xmlns="http://www.w3.org/2000/svg" viewBox="0 0 48 48">
  <rect width="48" height="48" rx="11" fill="#263d31"/>
  <g fill="none" stroke="#f6f0de" stroke-width="2.2" stroke-linecap="round" stroke-linejoin="round" transform="translate(24 25) scale(0.86) translate(-24 -27)">
    <ellipse cx="24" cy="29" rx="7" ry="11"/>
    <path d="M18 25h12M17 30h14M19 35h10M21 19l-3-5m9 5 3-5"/>
    <path d="M18 28C3 29 4 10 13 14c5 2 7 10 7 10M30 28c15 1 14-18 5-14-5 2-7 10-7 10"/>
    <circle cx="24" cy="16" r="3"/>
  </g>
</svg>
